<?xml version="1.0" standalone="no"?>
<!DOCTYPE svg PUBLIC "-//W3C//DTD SVG 20010904//EN"
 "http://www.w3.org/TR/2001/REC-SVG-20010904/DTD/svg10.dtd">
<svg version="1.0" xmlns="http://www.w3.org/2000/svg"
 width="16.000000pt" height="16.000000pt" viewBox="0 0 16.000000 16.000000"
 preserveAspectRatio="xMidYMid meet">
<metadata>
Created by potrace 1.11, written by Peter Selinger 2001-2013
</metadata>
<g transform="translate(0.000000,16.000000) scale(0.002092,-0.002092)"
fill="#000000" stroke="none">
<path d="M1620 5878 c164 -15 227 -29 297 -63 111 -53 167 -124 210 -260 17
-57 18 -137 18 -1725 0 -1589 -1 -1668 -18 -1725 -67 -215 -190 -295 -502
-323 -67 -6 196 -9 795 -9 615 0 853 3 760 9 -324 21 -448 99 -516 324 -17 56
-19 157 -21 1833 -3 1648 -2 1775 13 1792 16 18 60 19 1161 19 770 0 1151 -3
1164 -10 19 -11 19 -41 19 -1768 0 -1903 2 -1826 -54 -1947 -72 -157 -207
-223 -496 -243 -83 -6 177 -9 775 -9 594 0 868 3 805 9 -164 15 -227 29 -297
63 -111 53 -167 124 -210 260 -17 57 -18 137 -18 1725 0 1588 1 1668 18 1725
68 220 183 294 502 323 62 6 -766 9 -2200 9 -1419 0 -2264 -3 -2205 -9z"/>
</g>
</svg>
